<?xml version="1.0" encoding="UTF-8"?><svg id="Layer_1" xmlns="http://www.w3.org/2000/svg" xmlns:xlink="http://www.w3.org/1999/xlink" viewBox="0 0 496 496"><defs><style>.cls-1{fill:url(#linear-gradient);stroke-width:0px;}</style><linearGradient id="linear-gradient" x1="248" y1="496" x2="248" y2="0" gradientUnits="userSpaceOnUse"><stop offset="0" stop-color="#b33313"/><stop offset=".66" stop-color="#cb4625"/><stop offset="1" stop-color="#c04223"/></linearGradient></defs><path class="cls-1" d="m248,0C111,0,0,111,0,248s111,248,248,248,248-111,248-248S385,0,248,0Zm0,96c48.6,0,88,39.4,88,88s-39.4,88-88,88-88-39.4-88-88,39.4-88,88-88Zm0,344c-58.7,0-111.3-26.6-146.5-68.2,18.8-35.4,55.6-59.8,98.5-59.8,2.4,0,4.8.4,7.1,1.1,13,4.2,26.6,6.9,40.9,6.9s28-2.7,40.9-6.9c2.3-.7,4.7-1.1,7.1-1.1,42.9,0,79.7,24.4,98.5,59.8-35.2,41.6-87.8,68.2-146.5,68.2Z"/></svg>